<mxfile host="app.diagrams.net" modified="2023-05-31T17:22:48.202Z" agent="Mozilla/5.0 (Windows NT 10.0; Win64; x64) AppleWebKit/537.36 (KHTML, like Gecko) Chrome/113.0.0.0 Safari/537.36 Edg/113.0.1774.57" etag="Zqfz6Tf4DF7uGwAK_M9W" version="21.3.2" type="google">
  <diagram name="Seite-1" id="vzOMnN6ZuJoMXF6m8mdF">
    <mxGraphModel grid="0" page="1" gridSize="10" guides="1" tooltips="1" connect="1" arrows="1" fold="1" pageScale="1" pageWidth="827" pageHeight="1169" math="0" shadow="0">
      <root>
        <mxCell id="0" />
        <mxCell id="1" parent="0" />
        <mxCell id="5XccGs4m8ML1pp67Jf0b-1" value="&lt;p style=&quot;margin:0px;margin-top:6px;text-align:center;&quot;&gt;&lt;b&gt;Feature Server&lt;/b&gt;&lt;/p&gt;&lt;hr&gt;&lt;p style=&quot;margin:0px;margin-left:8px;&quot;&gt;&lt;br&gt;&lt;/p&gt;" style="align=left;overflow=fill;html=1;dropTarget=0;whiteSpace=wrap;" vertex="1" parent="1">
          <mxGeometry x="268" y="250" width="180" height="60" as="geometry" />
        </mxCell>
        <mxCell id="5XccGs4m8ML1pp67Jf0b-2" value="" style="shape=component;jettyWidth=8;jettyHeight=4;" vertex="1" parent="5XccGs4m8ML1pp67Jf0b-1">
          <mxGeometry x="1" width="20" height="20" relative="1" as="geometry">
            <mxPoint x="-24" y="4" as="offset" />
          </mxGeometry>
        </mxCell>
        <mxCell id="5XccGs4m8ML1pp67Jf0b-7" style="edgeStyle=orthogonalEdgeStyle;rounded=0;orthogonalLoop=1;jettySize=auto;html=1;exitX=0.5;exitY=0;exitDx=0;exitDy=0;exitPerimeter=0;entryX=0.5;entryY=1;entryDx=0;entryDy=0;" edge="1" parent="1" source="5XccGs4m8ML1pp67Jf0b-4" target="5XccGs4m8ML1pp67Jf0b-1">
          <mxGeometry relative="1" as="geometry">
            <Array as="points">
              <mxPoint x="280" y="366" />
              <mxPoint x="280" y="350" />
              <mxPoint x="358" y="350" />
            </Array>
          </mxGeometry>
        </mxCell>
        <mxCell id="5XccGs4m8ML1pp67Jf0b-44" style="edgeStyle=orthogonalEdgeStyle;rounded=0;orthogonalLoop=1;jettySize=auto;html=1;exitX=0.5;exitY=0;exitDx=0;exitDy=0;exitPerimeter=0;entryX=0.5;entryY=1;entryDx=0;entryDy=0;entryPerimeter=0;" edge="1" parent="1" source="5XccGs4m8ML1pp67Jf0b-4" target="5XccGs4m8ML1pp67Jf0b-39">
          <mxGeometry relative="1" as="geometry">
            <mxPoint x="130" y="260" as="targetPoint" />
            <Array as="points">
              <mxPoint x="280" y="366" />
              <mxPoint x="280" y="350" />
              <mxPoint x="178" y="350" />
            </Array>
          </mxGeometry>
        </mxCell>
        <mxCell id="5XccGs4m8ML1pp67Jf0b-4" value="Data Store" style="shape=cylinder3;whiteSpace=wrap;html=1;boundedLbl=1;backgroundOutline=1;size=8.600067138671875;" vertex="1" parent="1">
          <mxGeometry x="221" y="366" width="110" height="60" as="geometry" />
        </mxCell>
        <mxCell id="5XccGs4m8ML1pp67Jf0b-9" value="" style="endArrow=none;html=1;rounded=0;exitX=0.37;exitY=-0.141;exitDx=0;exitDy=0;exitPerimeter=0;" edge="1" parent="1">
          <mxGeometry width="50" height="50" relative="1" as="geometry">
            <mxPoint x="212.20000000000005" y="200.20600000000002" as="sourcePoint" />
            <mxPoint x="600" y="200" as="targetPoint" />
          </mxGeometry>
        </mxCell>
        <mxCell id="5XccGs4m8ML1pp67Jf0b-19" value="" style="rounded=0;orthogonalLoop=1;jettySize=auto;html=1;endArrow=halfCircle;endFill=0;endSize=6;strokeWidth=1;sketch=0;" edge="1" parent="1" target="5XccGs4m8ML1pp67Jf0b-20">
          <mxGeometry relative="1" as="geometry">
            <mxPoint x="313" y="200" as="sourcePoint" />
            <mxPoint x="308" y="220" as="targetPoint" />
          </mxGeometry>
        </mxCell>
        <mxCell id="5XccGs4m8ML1pp67Jf0b-21" value="" style="rounded=0;orthogonalLoop=1;jettySize=auto;html=1;endArrow=none;endFill=0;sketch=0;sourcePerimeterSpacing=0;targetPerimeterSpacing=0;exitX=0.25;exitY=0;exitDx=0;exitDy=0;" edge="1" parent="1" source="5XccGs4m8ML1pp67Jf0b-1" target="5XccGs4m8ML1pp67Jf0b-20">
          <mxGeometry relative="1" as="geometry">
            <mxPoint x="313" y="250" as="sourcePoint" />
            <mxPoint x="308" y="220" as="targetPoint" />
          </mxGeometry>
        </mxCell>
        <mxCell id="5XccGs4m8ML1pp67Jf0b-20" value="" style="ellipse;whiteSpace=wrap;html=1;align=center;aspect=fixed;resizable=0;points=[];outlineConnect=0;sketch=0;" vertex="1" parent="1">
          <mxGeometry x="308" y="220" width="10" height="10" as="geometry" />
        </mxCell>
        <mxCell id="5XccGs4m8ML1pp67Jf0b-24" value="OGC WFS" style="text;strokeColor=none;align=center;fillColor=none;html=1;verticalAlign=middle;whiteSpace=wrap;rounded=0;" vertex="1" parent="1">
          <mxGeometry x="319" y="216" width="60" height="34" as="geometry" />
        </mxCell>
        <mxCell id="5XccGs4m8ML1pp67Jf0b-26" value="" style="rounded=0;orthogonalLoop=1;jettySize=auto;html=1;endArrow=halfCircle;endFill=0;endSize=6;strokeWidth=1;sketch=0;" edge="1" parent="1" target="5XccGs4m8ML1pp67Jf0b-28">
          <mxGeometry relative="1" as="geometry">
            <mxPoint x="392" y="200" as="sourcePoint" />
            <mxPoint x="387" y="220" as="targetPoint" />
          </mxGeometry>
        </mxCell>
        <mxCell id="5XccGs4m8ML1pp67Jf0b-27" value="" style="rounded=0;orthogonalLoop=1;jettySize=auto;html=1;endArrow=none;endFill=0;sketch=0;sourcePerimeterSpacing=0;targetPerimeterSpacing=0;exitX=0.25;exitY=0;exitDx=0;exitDy=0;" edge="1" parent="1" target="5XccGs4m8ML1pp67Jf0b-28">
          <mxGeometry relative="1" as="geometry">
            <mxPoint x="392" y="250" as="sourcePoint" />
            <mxPoint x="387" y="220" as="targetPoint" />
          </mxGeometry>
        </mxCell>
        <mxCell id="5XccGs4m8ML1pp67Jf0b-28" value="" style="ellipse;whiteSpace=wrap;html=1;align=center;aspect=fixed;resizable=0;points=[];outlineConnect=0;sketch=0;" vertex="1" parent="1">
          <mxGeometry x="387" y="220" width="10" height="10" as="geometry" />
        </mxCell>
        <mxCell id="5XccGs4m8ML1pp67Jf0b-29" value="OGC API Features" style="text;strokeColor=none;align=center;fillColor=none;html=1;verticalAlign=middle;whiteSpace=wrap;rounded=0;" vertex="1" parent="1">
          <mxGeometry x="383" y="216" width="131" height="34" as="geometry" />
        </mxCell>
        <mxCell id="5XccGs4m8ML1pp67Jf0b-33" value="&lt;p style=&quot;margin:0px;margin-top:6px;text-align:center;&quot;&gt;&lt;b&gt;Application&lt;/b&gt;&lt;/p&gt;" style="align=left;overflow=fill;html=1;dropTarget=0;whiteSpace=wrap;" vertex="1" parent="1">
          <mxGeometry x="121" y="134" width="155" height="46" as="geometry" />
        </mxCell>
        <mxCell id="5XccGs4m8ML1pp67Jf0b-34" value="" style="shape=component;jettyWidth=8;jettyHeight=4;" vertex="1" parent="5XccGs4m8ML1pp67Jf0b-33">
          <mxGeometry x="1" width="20" height="20" relative="1" as="geometry">
            <mxPoint x="-24" y="4" as="offset" />
          </mxGeometry>
        </mxCell>
        <mxCell id="5XccGs4m8ML1pp67Jf0b-37" value="" style="endArrow=none;html=1;rounded=0;" edge="1" parent="1">
          <mxGeometry width="50" height="50" relative="1" as="geometry">
            <mxPoint x="244" y="200" as="sourcePoint" />
            <mxPoint x="244" y="180" as="targetPoint" />
          </mxGeometry>
        </mxCell>
        <mxCell id="5XccGs4m8ML1pp67Jf0b-39" value="FeatureData.SHP" style="shape=cylinder3;whiteSpace=wrap;html=1;boundedLbl=1;backgroundOutline=1;size=8.600067138671875;" vertex="1" parent="1">
          <mxGeometry x="128" y="249" width="100" height="60" as="geometry" />
        </mxCell>
        <mxCell id="5XccGs4m8ML1pp67Jf0b-40" value="" style="endArrow=none;html=1;rounded=0;exitX=0.5;exitY=0;exitDx=0;exitDy=0;exitPerimeter=0;" edge="1" parent="1" source="5XccGs4m8ML1pp67Jf0b-39">
          <mxGeometry width="50" height="50" relative="1" as="geometry">
            <mxPoint x="626" y="194" as="sourcePoint" />
            <mxPoint x="178" y="180" as="targetPoint" />
          </mxGeometry>
        </mxCell>
        <mxCell id="5XccGs4m8ML1pp67Jf0b-42" value="http" style="text;strokeColor=none;align=center;fillColor=none;html=1;verticalAlign=middle;whiteSpace=wrap;rounded=0;" vertex="1" parent="1">
          <mxGeometry x="190" y="200" width="60" height="30" as="geometry" />
        </mxCell>
      </root>
    </mxGraphModel>
  </diagram>
</mxfile>
